# xmcd
#
# Track frame offsets:
# 182
# 18087
# 34875
# 48685
# 63437
# 78012
# 93485
# 105347
# 124500
# 142717
#
# Disc length: 2095 seconds
#
#
# Revision: 2
# Processed by: cddbd v1.5.1PL0 Copyright (c) Steve Scherf et al.
# Submitted via: FreeRIP 2.942 
#
DISCID=70082d0a
DTITLE=Dolly Parton - The Encore Collection
DYEAR=1900
DGENRE=Country
TTITLE0=Starting All Over Again
TTITLE1=Single Women
TTITLE2=It's All Wrong, But It's All Right
TTITLE3=Working Girl
TTITLE4=But You Know I Love You
TTITLE5=Old Flames (Can't Hold A Candle To You)
TTITLE6=Baby, I'm Burnin'
TTITLE7=God Won't Get You
TTITLE8=The House Of The Rising Sun
TTITLE9=Potential New Boyfriend
EXTD=
EXTT0=
EXTT1=
EXTT2=
EXTT3=
EXTT4=
EXTT5=
EXTT6=
EXTT7=
EXTT8=
EXTT9=
PLAYORDER=
